%TF.GenerationSoftware,KiCad,Pcbnew,9.0.4*%
%TF.CreationDate,2025-09-11T11:48:02+02:00*%
%TF.ProjectId,200_042_V1_Line,3230305f-3034-4325-9f56-315f4c696e65,rev?*%
%TF.SameCoordinates,Original*%
%TF.FileFunction,Copper,L2,Bot*%
%TF.FilePolarity,Positive*%
%FSLAX46Y46*%
G04 Gerber Fmt 4.6, Leading zero omitted, Abs format (unit mm)*
G04 Created by KiCad (PCBNEW 9.0.4) date 2025-09-11 11:48:02*
%MOMM*%
%LPD*%
G01*
G04 APERTURE LIST*
%TA.AperFunction,ViaPad*%
%ADD10C,0.500000*%
%TD*%
G04 APERTURE END LIST*
D10*
%TO.N,GND*%
X139234403Y-85591317D03*
X135527911Y-94677131D03*
X135981677Y-78088914D03*
X139637418Y-74199718D03*
X136434403Y-85591317D03*
X141518323Y-84148819D03*
X138930241Y-95589807D03*
X137827333Y-89586470D03*
X141574891Y-88250038D03*
X141504181Y-91064323D03*
X140344383Y-87585358D03*
X139641832Y-72806071D03*
X137544383Y-87585358D03*
X141044383Y-83583134D03*
X137745421Y-71509374D03*
X139752687Y-97465273D03*
X139754555Y-98864564D03*
X141511252Y-86998459D03*
X137728231Y-72884643D03*
X136420154Y-97491924D03*
X136434403Y-81589093D03*
X137028229Y-73584644D03*
X141942027Y-94069643D03*
X139934404Y-85591317D03*
X139255581Y-74914005D03*
X141044383Y-91587580D03*
X137530241Y-95589808D03*
X137544383Y-91587582D03*
X137551454Y-79587980D03*
X135533170Y-78601504D03*
X137834404Y-77586868D03*
X138237313Y-75585754D03*
X135527911Y-95377131D03*
X141945616Y-93372946D03*
X135960464Y-90003663D03*
X141878946Y-88992500D03*
X140351454Y-79587980D03*
X135932179Y-89056140D03*
X139651454Y-79587980D03*
X137134404Y-81589092D03*
X138937312Y-75585756D03*
X137544383Y-83583133D03*
X141765774Y-76406034D03*
X137834405Y-85591315D03*
X135529130Y-92584531D03*
X135536760Y-75104807D03*
X139234402Y-81589092D03*
X137821917Y-99587577D03*
X135527911Y-96077130D03*
X135533170Y-75801504D03*
X138534403Y-77586868D03*
X137834405Y-81589092D03*
X139630240Y-95589807D03*
X139241474Y-93588694D03*
X138944383Y-91587582D03*
X135522057Y-80174879D03*
X139644382Y-87585358D03*
X141946069Y-85679723D03*
X141949659Y-82183025D03*
X139644384Y-91587581D03*
X137134404Y-85591317D03*
X139234403Y-77586868D03*
X141164769Y-75847385D03*
X138244382Y-83583134D03*
X140337312Y-75585756D03*
X139934404Y-77586867D03*
X138541475Y-93588694D03*
X135529129Y-87691423D03*
X135532718Y-84194726D03*
X141945616Y-92672945D03*
X139637420Y-73499719D03*
X135946322Y-82168919D03*
X137841475Y-93588695D03*
X135529129Y-88391422D03*
X137823385Y-98889567D03*
X137141475Y-93588694D03*
X135529129Y-91184529D03*
X139934404Y-81589092D03*
X135529129Y-90484530D03*
X139488926Y-96487832D03*
X141108202Y-95335248D03*
X137820154Y-97491924D03*
X136434403Y-77586868D03*
X138244382Y-91587581D03*
X141490039Y-82946737D03*
X139753574Y-98163451D03*
X141214267Y-79998102D03*
X139941475Y-93588694D03*
X135889754Y-84969063D03*
X141946069Y-84979723D03*
X138951455Y-79587980D03*
X137537312Y-75585756D03*
X139927333Y-89586470D03*
X141945616Y-89879838D03*
X138230242Y-95589807D03*
X135529128Y-91884530D03*
X136441474Y-93588694D03*
X140344383Y-83583133D03*
X138244383Y-87585357D03*
X135533169Y-79294611D03*
X135967535Y-77070679D03*
X135960464Y-94133168D03*
X138251454Y-79587978D03*
X139227332Y-89586470D03*
X139755440Y-99562743D03*
X141518323Y-92082557D03*
X138534404Y-81589092D03*
X141977942Y-77197959D03*
X139641832Y-72106071D03*
X141949658Y-77989918D03*
X135532718Y-83494727D03*
X137728231Y-73584644D03*
X139644382Y-83583133D03*
X137731820Y-72187946D03*
X141779952Y-78697026D03*
X140330241Y-95589807D03*
X141737526Y-80606214D03*
X135533170Y-76501504D03*
X141143556Y-79248569D03*
X135875611Y-86227713D03*
X141758739Y-94797847D03*
X135939250Y-80973909D03*
X140344383Y-91587582D03*
X135988748Y-93114932D03*
X138944384Y-87585357D03*
X138527332Y-89586470D03*
X135529130Y-86991421D03*
X139646244Y-71412423D03*
X138944384Y-83583132D03*
X141949657Y-81483027D03*
X135769545Y-74270537D03*
X136314017Y-73825060D03*
X137120154Y-97491923D03*
X141044383Y-87585357D03*
X135532718Y-82794726D03*
X137134404Y-77586867D03*
X138534404Y-85591315D03*
X137822674Y-98190192D03*
X137127333Y-89586470D03*
X136427332Y-89586470D03*
X135826113Y-96912096D03*
X139637311Y-75585756D03*
X141946069Y-86379724D03*
X141945616Y-90572944D03*
%TD*%
%TA.AperFunction,Conductor*%
%TO.N,GND*%
G36*
X144177826Y-68522174D02*
G01*
X144199500Y-68574500D01*
X144199500Y-102425500D01*
X144177826Y-102477826D01*
X144125500Y-102499500D01*
X133324500Y-102499500D01*
X133272174Y-102477826D01*
X133250500Y-102425500D01*
X133250500Y-68574500D01*
X133272174Y-68522174D01*
X133324500Y-68500500D01*
X144125500Y-68500500D01*
X144177826Y-68522174D01*
G37*
%TD.AperFunction*%
%TD*%
M02*
